<svg xmlns="http://www.w3.org/2000/svg" width="127" height="32" viewBox="0 0 127 32" fill="none"><mask id="path-1-inside-1" fill="white"><path fill-rule="evenodd" clip-rule="evenodd" d="M10.6205 31.3352H0.051577C-0.0171923 31.3352 -0.0171923 31.0514 0.051577 31.0514H3.07406L3.0808 1.30055L0.0509029 1.30594V1.00188H9.10554C12.9613 1.00188 17.7752 1.74957 17.9464 8.0595C18.1157 14.2811 12.8535 15.4232 10.4438 15.4232C14.2996 15.4232 19.0124 18.3014 19.0124 23.422C19.013 27.5104 15.6123 31.3352 10.6205 31.3352ZM8.58976 1.30594L6.83412 1.29583V15.1771H9.62265C12.033 15.1771 14.0064 12.6468 13.9922 8.23142C13.9767 3.30228 11.7909 1.30594 8.58976 1.30594ZM9.31252 15.6612H6.83345L6.83278 31.0514H9.75952C12.7894 31.0514 14.5309 28.2015 14.5842 23.6803C14.6482 18.3553 12.5487 15.6612 9.31252 15.6612ZM29.9366 31.2914V31.0736L33.255 31.0757L30.8218 22.3696H22.8446L21.1483 28.6229C20.9458 29.4355 20.762 30.2526 20.5968 31.0736H23.8269V31.2914H17.2237V31.0736H20.259C20.259 31.0736 20.4262 30.301 20.8388 28.6229L28.4823 0L37.2706 31.077L40.3235 31.0797V31.2907H29.9366V31.2914ZM26.9343 6.76165L22.8419 22.0413H30.6378L26.9343 6.76165ZM42.5012 31.2914L55.4743 1.08615H49.2021C44.5905 1.15627 43.2906 6.7967 43.2124 12.7736C43.2017 13.5732 43.1376 14.6283 43.1005 15.8109C43.1005 15.8109 42.8902 15.823 42.8902 15.79L42.9043 0.780059H59.3921L46.6078 31.077L52.3203 31.0851C57.8327 30.9051 58.9269 26.9171 59.1224 15.8143H59.3746V31.284L42.5012 31.2914ZM124.991 31.6353C124.461 31.8975 123.826 32 123.083 32C119.966 32.0007 118.899 29.7124 119.024 23.6513V20.8546C119.024 17.0676 117.203 15.7536 114.311 15.7536H111.522L111.53 31.0986H115.124L115.126 31.2692H104.741L104.731 31.108L107.785 31.1026L107.771 1.05918L104.741 1.0639V0.757807H114.518C119.269 0.757807 123.196 2.05431 123.203 8.24558C123.209 13.4781 118.964 15.4778 115.659 15.4778C120.547 15.4778 123.447 17.5267 122.88 23.7376L122.77 27.6102C122.77 29.8054 123.056 31.4262 124.31 31.4195C124.71 31.4168 125.097 31.3231 125.36 31.0318C125.642 30.7197 125.804 30.2369 125.841 29.9288C125.859 29.769 125.929 29.3935 125.887 28.9782C125.887 28.9782 125.904 24.5075 125.887 24.4859C125.9 24.5028 126.129 24.4859 126.129 24.4859L126.123 27.2724C126.152 29.7684 126.15 30.0731 125.939 30.5713C125.802 30.8983 125.512 31.377 124.991 31.6353ZM113.76 1.08615H111.519L111.522 15.2702H114.311C117.444 15.2702 118.954 13.3129 119.172 8.41818C119.411 3.04406 116.721 1.08615 113.76 1.08615ZM73.4804 31.2975V31.0885L76.8002 31.0905L74.367 22.3757H66.3897L64.6934 28.629C64.491 29.4416 64.3071 30.2587 64.1419 31.0797H67.3721V31.2968H60.7689V31.0797H63.8035C63.8035 31.0797 63.9707 30.3071 64.384 28.629L72.0268 0.00606455L80.8151 31.0871L83.8686 31.0905V31.2968H73.4804V31.2975ZM70.4781 6.76906L66.3857 22.048H74.1823L70.4781 6.76906Z"></path></mask><path fill-rule="evenodd" clip-rule="evenodd" d="M10.6205 31.3352H0.051577C-0.0171923 31.3352 -0.0171923 31.0514 0.051577 31.0514H3.07406L3.0808 1.30055L0.0509029 1.30594V1.00188H9.10554C12.9613 1.00188 17.7752 1.74957 17.9464 8.0595C18.1157 14.2811 12.8535 15.4232 10.4438 15.4232C14.2996 15.4232 19.0124 18.3014 19.0124 23.422C19.013 27.5104 15.6123 31.3352 10.6205 31.3352ZM8.58976 1.30594L6.83412 1.29583V15.1771H9.62265C12.033 15.1771 14.0064 12.6468 13.9922 8.23142C13.9767 3.30228 11.7909 1.30594 8.58976 1.30594ZM9.31252 15.6612H6.83345L6.83278 31.0514H9.75952C12.7894 31.0514 14.5309 28.2015 14.5842 23.6803C14.6482 18.3553 12.5487 15.6612 9.31252 15.6612ZM29.9366 31.2914V31.0736L33.255 31.0757L30.8218 22.3696H22.8446L21.1483 28.6229C20.9458 29.4355 20.762 30.2526 20.5968 31.0736H23.8269V31.2914H17.2237V31.0736H20.259C20.259 31.0736 20.4262 30.301 20.8388 28.6229L28.4823 0L37.2706 31.077L40.3235 31.0797V31.2907H29.9366V31.2914ZM26.9343 6.76165L22.8419 22.0413H30.6378L26.9343 6.76165ZM42.5012 31.2914L55.4743 1.08615H49.2021C44.5905 1.15627 43.2906 6.7967 43.2124 12.7736C43.2017 13.5732 43.1376 14.6283 43.1005 15.8109C43.1005 15.8109 42.8902 15.823 42.8902 15.79L42.9043 0.780059H59.3921L46.6078 31.077L52.3203 31.0851C57.8327 30.9051 58.9269 26.9171 59.1224 15.8143H59.3746V31.284L42.5012 31.2914ZM124.991 31.6353C124.461 31.8975 123.826 32 123.083 32C119.966 32.0007 118.899 29.7124 119.024 23.6513V20.8546C119.024 17.0676 117.203 15.7536 114.311 15.7536H111.522L111.53 31.0986H115.124L115.126 31.2692H104.741L104.731 31.108L107.785 31.1026L107.771 1.05918L104.741 1.0639V0.757807H114.518C119.269 0.757807 123.196 2.05431 123.203 8.24558C123.209 13.4781 118.964 15.4778 115.659 15.4778C120.547 15.4778 123.447 17.5267 122.88 23.7376L122.77 27.6102C122.77 29.8054 123.056 31.4262 124.31 31.4195C124.71 31.4168 125.097 31.3231 125.36 31.0318C125.642 30.7197 125.804 30.2369 125.841 29.9288C125.859 29.769 125.929 29.3935 125.887 28.9782C125.887 28.9782 125.904 24.5075 125.887 24.4859C125.9 24.5028 126.129 24.4859 126.129 24.4859L126.123 27.2724C126.152 29.7684 126.15 30.0731 125.939 30.5713C125.802 30.8983 125.512 31.377 124.991 31.6353ZM113.76 1.08615H111.519L111.522 15.2702H114.311C117.444 15.2702 118.954 13.3129 119.172 8.41818C119.411 3.04406 116.721 1.08615 113.76 1.08615ZM73.4804 31.2975V31.0885L76.8002 31.0905L74.367 22.3757H66.3897L64.6934 28.629C64.491 29.4416 64.3071 30.2587 64.1419 31.0797H67.3721V31.2968H60.7689V31.0797H63.8035C63.8035 31.0797 63.9707 30.3071 64.384 28.629L72.0268 0.00606455L80.8151 31.0871L83.8686 31.0905V31.2968H73.4804V31.2975ZM70.4781 6.76906L66.3857 22.048H74.1823L70.4781 6.76906Z" fill="black" stroke="black" stroke-width="25.9395" mask="url(#path-1-inside-1)"></path><path fill-rule="evenodd" clip-rule="evenodd" d="M94.9153 31.3064V31.0893L98.2351 31.0906L95.8019 22.3845H87.8247L86.127 28.6385C85.7488 30.1872 85.5769 31.0893 85.5769 31.0893H88.8057V31.3064H82.2031V31.0933L85.2384 31.0893C85.2384 31.0893 85.4056 30.3166 85.8189 28.6385L93.4617 0.015625L102.25 31.092L105.302 31.096V31.3064H94.9153ZM91.9131 6.77727L87.8206 22.0569H95.6172L91.9131 6.77727Z" fill="black"></path><path fill-rule="evenodd" clip-rule="evenodd" d="M76.0784 2.32409V3.81813H76.5376V3.93949H75.0273V3.81813H75.4858V0.801719H75.0273V0.679688H76.5376V0.801719H76.0784V2.20205H77.3109V0.801719H76.8524V0.679688H78.3627V0.801719H77.9049V3.81813H78.3627V3.93949H76.8524V3.81813H77.3109V2.32409H76.0784ZM79.7495 2.25127C79.7495 2.12452 79.523 2.0753 79.4441 2.0753C79.2674 2.0753 79.0504 2.16834 79.1205 2.26071C79.1481 2.29981 79.1852 2.40229 79.1852 2.49533C79.1852 2.62209 79.0692 2.70973 78.9627 2.70973C78.8326 2.70973 78.722 2.63692 78.722 2.4805C78.722 2.10901 79.1764 1.97754 79.4582 1.97754C79.6585 1.97754 79.8715 2.01193 80.0522 2.10901C80.181 2.17778 80.2235 2.25599 80.2235 2.40701V3.70486C80.2235 3.76891 80.2788 3.79791 80.3354 3.79791C80.3907 3.79791 80.4608 3.72509 80.4972 3.68599L80.5525 3.75408C80.4311 3.9105 80.3064 4.01298 80.1129 4.01298C79.9086 4.01298 79.7785 3.88151 79.7509 3.66644C79.6718 3.77184 79.5697 3.85783 79.4524 3.91788C79.3351 3.97793 79.2057 4.01045 79.0739 4.01298C78.7962 4.01298 78.5932 3.85185 78.5932 3.53969C78.5932 2.95852 79.3349 2.83716 79.7509 2.86143V2.25127H79.7495ZM79.7495 2.96391C79.4623 2.96391 79.078 3.00301 79.078 3.3981C79.078 3.61317 79.1609 3.77431 79.3794 3.77431C79.5412 3.77431 79.6612 3.64284 79.7178 3.48642C79.7431 3.40442 79.7538 3.31862 79.7495 3.23292V2.96391ZM81.4836 2.52905C81.6326 2.26071 81.7944 1.97754 82.1328 1.97754C82.3135 1.97754 82.503 2.0753 82.503 2.2951C82.503 2.48522 82.3776 2.56815 82.2117 2.56815C82.1532 2.56564 82.0977 2.54111 82.0565 2.49949C82.0152 2.45787 81.9912 2.40221 81.9892 2.34364C81.9892 2.32409 81.9933 2.29509 81.9987 2.27082C82.0122 2.19261 82.0169 2.16363 81.9656 2.16363C81.8773 2.16363 81.8315 2.21217 81.7708 2.27622C81.5955 2.46163 81.4836 2.72524 81.4836 3.36439V3.81813H81.9009V3.94016H80.7089V3.81813H80.9826V2.12924H80.6779V2.00721C80.9186 2.01665 81.2004 1.99709 81.4836 1.98766V2.52905ZM83.3707 2.38274H83.3801C83.4779 2.15823 83.7078 1.97754 83.9505 1.97754C84.4548 1.97754 84.8169 2.47511 84.8169 2.98818C84.8169 3.48103 84.4494 4.01365 83.9505 4.01365C83.699 4.01365 83.4866 3.91117 83.3801 3.66711H83.3707V4.96024H83.6943V5.08227H82.5353V4.96024H82.8697V2.12924H82.5313V2.00721C82.8037 2.01665 83.0868 1.99709 83.37 1.98766V2.38274H83.3707ZM84.2647 2.49938C84.2647 2.23644 84.1946 2.07463 83.9121 2.07463C83.6397 2.07463 83.3707 2.45084 83.3707 2.63624V3.27068C83.3707 3.58823 83.5878 3.91522 83.9026 3.91522C84.1346 3.91522 84.2647 3.79319 84.2647 3.5444V2.49938ZM85.5949 2.86143V3.2518C85.5949 3.59362 85.6131 3.91522 86.0082 3.91522C86.3413 3.91522 86.5954 3.66172 86.6891 3.32933H86.8051C86.6837 3.80263 86.3642 4.01298 85.9152 4.01298C85.4108 4.01298 85.0447 3.50058 85.0447 3.00234C85.0447 2.46567 85.4607 1.97687 85.9664 1.97687C86.3972 1.97687 86.7957 2.28903 86.7957 2.77244C86.7957 2.87492 86.7539 2.86008 86.6797 2.86008H85.5949V2.86143ZM86.2718 2.7394C86.2718 2.41241 86.3507 2.0753 85.9387 2.0753C85.5544 2.0753 85.5949 2.43196 85.5949 2.7394H86.2718ZM87.7598 2.52905C87.9088 2.26071 88.0706 1.97754 88.409 1.97754C88.5897 1.97754 88.7792 2.0753 88.7792 2.2951C88.7792 2.48522 88.6538 2.56815 88.4866 2.56815C88.4281 2.56548 88.3727 2.54091 88.3315 2.49932C88.2903 2.45773 88.2662 2.40215 88.2641 2.34364C88.2641 2.32409 88.2695 2.29509 88.2749 2.27082C88.2884 2.19261 88.2931 2.16363 88.2418 2.16363C88.1535 2.16363 88.1077 2.21217 88.047 2.27622C87.8704 2.46163 87.7598 2.72524 87.7598 3.36439V3.81813H88.1771V3.94016H86.9851V3.81813H87.2588V2.12924H86.9534V2.00721C87.1941 2.01665 87.4759 1.99709 87.7591 1.98766V2.52905H87.7598ZM89.6233 1.58178C89.6233 1.9236 89.4008 2.21621 89.1412 2.3969C89.0994 2.41106 89.0529 2.39218 89.0529 2.33824C89.0529 2.31869 89.1264 2.26004 89.1412 2.2506C89.3071 2.13328 89.4891 1.82584 89.4891 1.6256C89.4891 1.5865 89.4709 1.42604 89.4102 1.42604C89.355 1.42604 89.3455 1.46042 89.3368 1.50425C89.3132 1.61144 89.2154 1.68494 89.0907 1.68494C88.9329 1.68494 88.8365 1.53324 88.8365 1.3775C88.8365 1.17726 88.9895 1.0505 89.1736 1.0505C89.4703 1.04983 89.6233 1.29389 89.6233 1.58178ZM89.7062 3.93949H89.6314V3.24169H89.7568C89.804 3.58823 89.9941 3.91522 90.3454 3.91522C90.5497 3.91522 90.7668 3.76892 90.7668 3.52485C90.7668 3.28079 90.5551 3.25652 90.3137 3.22213C89.8357 3.15336 89.655 2.94908 89.655 2.57287C89.655 2.20205 89.8957 1.97754 90.2382 1.97754C90.4 1.97754 90.5632 2.03148 90.6926 2.13396L90.7661 2.00721H90.845V2.58298H90.725C90.6973 2.31936 90.4971 2.0753 90.2375 2.0753C90.0568 2.0753 89.862 2.18789 89.862 2.41241C89.862 2.55871 89.8856 2.61264 90.3029 2.68546C90.7243 2.75827 90.965 2.83716 90.965 3.33944C90.965 3.80802 90.7189 4.01298 90.3029 4.01298C90.1499 4.01298 89.9503 3.91994 89.839 3.80802L89.7062 3.93949Z" fill="black"></path></svg>