<svg xmlns="http://www.w3.org/2000/svg" width="110" height="32" viewBox="0 0 110 32" fill="none"><path fill-rule="evenodd" clip-rule="evenodd" d="M2.45106 31.5234H0V32H13.4809V23.4894H13.0723C13.0723 23.4894 13.0723 28.3915 11.4383 30.0255C10.0766 31.3872 8.64681 31.5234 6.26383 31.5234V15.8638C6.26383 15.8638 7.89787 15.7277 8.71489 16.5447C9.94043 17.7702 10.0766 19.4043 10.0766 21.583H10.4851V9.6H10.0766C10.0766 11.7787 9.94043 13.4128 8.71489 14.6383C7.89787 15.4553 6.26383 15.3191 6.26383 15.3191V0.476596C8.64681 0.476596 9.73617 0.612766 11.0979 1.97447C12.7319 3.60851 12.7319 8.51064 12.7319 8.51064H13.1404V0H0V0.476596H2.45106V31.5234Z" fill="black"></path><path fill-rule="evenodd" clip-rule="evenodd" d="M38.2638 0.476596V31.5234C40.6468 31.5234 42.0766 31.3872 43.4383 30.0255C45.0723 28.3915 45.0723 23.4894 45.0723 23.4894H45.4809V32H32V31.5234H34.4511V0.476596H32V0H40.4426V0.476596H38.2638Z" fill="black"></path><path fill-rule="evenodd" clip-rule="evenodd" d="M70.0607 0.476596V31.5234C72.4437 31.5234 73.8735 31.3872 75.2352 30.0255C76.8692 28.3915 76.8692 23.4894 76.8692 23.4894H77.2777V32H63.7969V31.5234H66.2479V0.476596H63.7969V0H72.2394V0.476596H70.0607Z" fill="black"></path><path fill-rule="evenodd" clip-rule="evenodd" d="M98.0409 31.5234H95.5898V32H109.071V23.4894H108.662C108.662 23.4894 108.662 28.3915 107.028 30.0255C105.666 31.3872 104.237 31.5234 101.854 31.5234V15.8638C101.854 15.8638 103.488 15.7277 104.305 16.5447C105.53 17.7702 105.666 19.4043 105.666 21.583H106.075V9.6H105.666C105.666 11.7787 105.53 13.4128 104.305 14.6383C103.488 15.4553 101.854 15.3191 101.854 15.3191V0.476596C104.237 0.476596 105.326 0.612766 106.688 1.97447C108.322 3.60851 108.322 8.51064 108.322 8.51064H108.73V0H95.5898V0.476596H98.0409V31.5234Z" fill="black"></path><path fill-rule="evenodd" clip-rule="evenodd" d="M107.164 30.6396C107.164 30.231 107.504 29.8906 107.913 29.8906C108.322 29.8906 108.662 30.231 108.662 30.6396C108.662 31.0481 108.322 31.3885 107.913 31.3885C107.573 31.4566 107.164 31.1162 107.164 30.6396ZM108.662 30.6396C108.662 30.2991 108.39 29.9587 107.981 29.9587C107.573 29.9587 107.3 30.231 107.3 30.6396C107.3 31.0481 107.573 31.3204 107.981 31.3204C108.322 31.3204 108.662 31.0481 108.662 30.6396ZM108.322 31.1162H108.253L107.981 30.7076H107.777V31.1162H107.709V30.2991H108.049C108.253 30.2991 108.322 30.3672 108.322 30.5034C108.322 30.6396 108.185 30.7076 108.049 30.7076L108.322 31.1162ZM107.981 30.6396C108.117 30.6396 108.322 30.6396 108.322 30.5034C108.322 30.3672 108.185 30.3672 108.117 30.3672H107.845V30.6396H107.981Z" fill="black"></path></svg>