<svg xmlns="http://www.w3.org/2000/svg" width="129" height="32" viewBox="0 0 129 32" fill="none"><path d="M16.8303 0.110398C15.5927 -0.0526772 7.28798 -0.732156 2.91455 5.03888C0.795182 7.72358 2.30514 10.97 7.11826 10.9821C2.60713 12.6309 -0.790269 15.6508 0.160398 19.2445C1.36957 24.109 6.83499 23.8801 11.177 23.4482C18.7944 22.6214 24.0485 15.4243 25.2377 14.461C27.0684 15.4243 27.9743 17.0853 27.2671 18.0849C25.1809 18.2178 19.8206 18.6707 20.0193 21.4189C20.2736 24.2576 28.7293 23.9556 33.3552 20.839C34.0896 21.0867 35.4486 21.7661 36.1094 22.2886C36.8076 22.8231 37.5625 22.3701 37.7039 20.1143C36.9586 19.4257 35.0711 18.7462 34.08 18.8097C34.3916 17.2363 34.9201 15.4243 30.746 12.2867C30.0128 11.9514 30.0883 11.4985 30.6011 11.127C31.1452 10.7435 30.5413 9.83751 29.1515 9.38755C27.6723 8.93154 24.5769 9.15804 23.6432 10.2573C23.1425 10.7435 23.1425 12.3289 23.9331 12.8665C23.1425 14.1409 19.3676 19.6522 13.7862 20.1143C11.7423 20.3317 9.45023 20.0327 9.58251 17.0702C9.7794 14.5939 13.5543 12.4044 14.9459 11.8518C15.7437 11.423 15.5927 10.215 14.511 9.96737C13.4788 9.61102 10.9874 9.46003 10.8871 7.50313C10.6854 5.53415 13.1768 4.09969 17.1202 3.29942C18.3861 3.19372 18.3861 0.551304 16.8303 0.110398Z" fill="black"></path><path d="M26.9786 20.405C25.6353 20.1815 22.3134 20.1815 22.34 21.2747C22.3134 22.2955 25.9373 22.069 26.9786 20.405ZM49.0118 13.3016C47.8316 13.0842 43.9813 12.6312 43.5035 16.3457C42.9243 20.0299 45.9442 20.3319 47.1274 20.1145C48.3601 20.0299 50.8515 18.7465 50.8962 14.3163C50.776 12.0272 51.682 11.1967 53.6504 11.1273C55.6079 11.0457 56.5139 11.4987 56.5495 13.5915C56.5139 15.5756 56.5894 30.9016 56.5495 31.566C55.1549 31.5811 51.38 31.7321 49.8815 32.0009C50.0211 28.3347 50.474 21.0114 50.4614 19.8246C49.4926 21.3134 47.6051 23.4273 44.0833 23.3035C40.5084 23.2763 37.262 21.6154 37.5603 16.9255C37.7149 12.2537 42.4713 9.00729 49.7366 10.1126C51.078 10.2914 51.229 13.4623 49.0118 13.3016ZM127.578 20.405C125.896 20.257 124.688 20.559 123.374 20.8399C121.97 21.012 119.856 21.2385 118.301 20.8399C116.685 20.4835 116.233 18.8981 116.706 17.9408C117.138 16.9351 118.648 16.4067 119.605 16.0564C120.46 15.8027 120.46 14.5947 119.46 14.3169C118.497 14.1417 117.138 13.7642 117.141 12.8673C117.138 12.1033 118.346 10.9708 122.069 11.2728C123.556 11.4238 123.178 8.93239 121.635 8.51867C120.158 8.47941 115.176 8.93239 111.778 10.693C110.042 11.5748 109.74 14.0662 114.387 14.8967C111.476 15.1232 109.513 17.6146 109.603 18.8105C109.61 19.069 109.552 19.6422 109.748 20.2601C109.001 20.7541 108.082 20.9124 106.994 20.8399C105.55 20.7855 103.285 18.9736 103.805 15.9114C104.21 13.1361 104.983 13.4623 105.399 13.3022C106.191 13.3113 107.022 12.8583 106.994 11.8526C107.022 10.7443 107.286 10.4804 106.414 10.548C105.625 10.4804 100.453 11.2354 96.5572 10.4031C96.5276 9.23438 94.6402 7.64893 92.6434 8.66362C90.7143 9.76287 91.2428 12.1788 93.5131 12.7224C93.6847 12.8299 93.8653 12.8746 94.093 12.8673C93.3507 15.7749 91.7556 20.5421 89.1645 20.9848C87.7699 21.314 86.8639 20.3325 86.9902 17.9408C87.1659 15.6517 87.57 11.2728 87.57 11.2728C87.7699 9.38538 80.8996 9.46088 81.047 11.8526V19.2454C80.9751 19.3764 81.0126 19.5981 81.047 19.8252C79.3419 21.1956 75.5054 21.5049 75.8286 18.3756L76.6983 11.7077C76.8982 9.76287 70.6319 9.08339 70.4652 11.8526V17.216C70.3807 17.547 70.371 17.9221 70.4652 18.3756C69.8957 19.2617 68.9541 20.1296 67.7111 20.1151C66.0266 20.257 65.0451 20.0305 65.2468 17.7958C65.3471 15.6517 65.8266 11.5627 65.8266 11.5627C66.0266 9.53637 59.7603 9.53637 59.5936 11.2728C59.5338 12.7073 59.1563 17.9921 59.0137 19.6802C59.0053 21.314 61.5722 23.3524 65.2468 23.1592C68.3912 23.0686 69.5327 22.1711 70.9001 20.405C71.4841 21.9579 72.9349 23.3319 76.1185 23.1592C77.26 23.1314 79.0399 23.5155 81.7718 21.2747C82.5726 22.3353 83.8337 23.2679 85.6855 23.3041C89.1288 23.5034 91.6958 23.2015 93.5131 19.6802C95.0817 16.5703 95.5733 15.3104 95.9774 13.3022C97.5188 13.6477 99.1151 13.8397 100.616 13.882C98.868 15.1232 98.1131 16.1802 98.2967 18.3756C98.3396 19.7286 99.2455 23.2274 105.11 23.3041C108.343 23.3053 109.853 22.6023 110.908 21.8546C112.287 22.8354 115.186 23.562 121.2 23.0142C123.178 22.7485 126.123 22.824 128.013 22.8693C129.294 22.975 129.369 20.408 127.578 20.405ZM84.3809 7.93884C86.3348 7.96482 87.8647 6.67411 87.8599 5.03973C87.8647 3.48992 86.3348 2.19921 84.3809 2.14062C82.5611 2.19921 81.0313 3.48992 81.047 5.03973C81.0313 6.6735 82.5611 7.96482 84.3809 7.93884Z" fill="black"></path></svg>