<svg width="185" height="18" viewBox="0 0 185 18" fill="none" xmlns="http://www.w3.org/2000/svg">
<path d="M13.3686 17.7497C12.5174 17.7497 11.4492 16.7566 10.1641 14.7705C9.61336 13.936 9.03755 13.1015 8.43672 12.267C7.85258 11.4325 7.19332 10.7149 6.45897 10.114C5.72462 9.51321 4.99027 9.20445 4.25592 9.18776V12.0918C4.25592 14.5953 4.37275 16.0974 4.6064 16.5981C4.70654 16.7983 4.85675 16.9736 5.05703 17.1238C5.25731 17.274 5.47427 17.3658 5.70793 17.3992C5.95828 17.4325 6.28374 17.4492 6.68429 17.4492L6.73436 17.7497H0L0.0500693 17.4492C0.884562 17.4492 1.49375 17.2907 1.87761 16.9736C2.29486 16.6231 2.50349 14.9958 2.50349 12.0918V5.88317C2.50349 4.09736 2.44507 2.879 2.32824 2.2281C2.2281 1.5605 2.07789 1.14326 1.87761 0.976357C1.49375 0.65925 0.884562 0.500696 0.0500693 0.500696L0 0.225313H6.73436L6.68429 0.500696C6.28374 0.500696 5.95828 0.517386 5.70793 0.550765C5.47427 0.584144 5.25731 0.675938 5.05703 0.826147C4.85675 0.976356 4.70654 1.1516 4.6064 1.35188C4.52295 1.55216 4.4562 1.87761 4.40613 2.32823C4.30599 3.06259 4.25592 4.24757 4.25592 5.88317V8.73713C4.97358 8.62031 5.82475 8.15299 6.80945 7.33519C7.81084 6.5007 8.68706 5.51599 9.43811 4.38108C10.1891 3.22948 10.5647 2.2114 10.5647 1.32684C10.5647 1.04312 10.4729 0.834492 10.2893 0.700973C10.1224 0.567455 9.80528 0.500696 9.33797 0.500696L9.2879 0.225313H15.4965L15.4465 0.500696C13.694 0.500696 12.3839 1.10988 11.516 2.32823C11.0988 2.92907 10.6982 3.56328 10.3143 4.23088C9.93047 4.88178 9.34633 5.64117 8.56191 6.50904C7.79417 7.36022 6.87622 8.12796 5.80807 8.81224C7.42698 8.91238 8.74549 9.53825 9.76357 10.6898C10.3811 11.3574 11.0403 12.2503 11.7413 13.3686C12.459 14.4868 13.0181 15.2962 13.4186 15.7969C14.3533 16.8985 15.4798 17.4492 16.7983 17.4492L16.8484 17.7497H13.3686Z" fill="black"/>
<path d="M30.3163 17.4492C30.9505 17.4492 31.3928 17.3992 31.6432 17.299C31.9102 17.1989 32.0437 16.9402 32.0437 16.5229C32.0437 16.1057 31.6014 14.6871 30.7169 12.267H23.0813C22.3636 14.3866 22.0048 15.7218 22.0048 16.2726C22.0048 16.8067 22.1383 17.1405 22.4053 17.274C22.6891 17.3908 23.1898 17.4492 23.9074 17.4492L23.9575 17.7497H18.3247L18.3748 17.4492C18.8588 17.4492 19.2343 17.4075 19.5013 17.3241C19.7851 17.2406 20.0855 17.0236 20.4026 16.6732C20.7364 16.306 21.0535 15.7802 21.3539 15.096C21.6543 14.4117 22.0132 13.452 22.4304 12.217L24.6585 5.78303C25.4429 3.51321 25.8351 2.1363 25.8351 1.6523C25.8351 1.16829 25.7183 0.859527 25.4846 0.726009C25.251 0.575801 24.8003 0.500696 24.1328 0.500696L24.0827 0.225313H28.2134L32.6446 12.217C33.3956 14.2031 33.8963 15.4631 34.1466 15.9972C34.4137 16.5313 34.6641 16.8734 34.8977 17.0236C35.315 17.3074 35.8407 17.4492 36.4749 17.4492L36.525 17.7497H30.2663L30.3163 17.4492ZM26.8115 1.57719L23.2816 11.6662H30.5166L26.8115 1.57719Z" fill="black"/>
<path d="M45.9046 12.0918C45.9046 14.5619 46.0464 16.064 46.3302 16.5981C46.4303 16.7983 46.6056 16.9736 46.8559 17.1238C47.1063 17.274 47.3733 17.3658 47.657 17.3992C47.9407 17.4325 48.3329 17.4492 48.8336 17.4492L48.8837 17.7497H41.173L41.2231 17.4492C41.7238 17.4492 42.116 17.4409 42.3997 17.4242C42.7001 17.3908 42.9672 17.2907 43.2008 17.1238C43.4512 16.9569 43.6264 16.7816 43.7266 16.5981C43.8434 16.4145 43.9352 16.089 44.0019 15.6217C44.1021 15.0542 44.1522 13.8776 44.1522 12.0918V10.5146L41.3482 5.78303C40.5638 4.44784 39.9797 3.47983 39.5958 2.879C39.212 2.26147 38.8197 1.75243 38.4192 1.35188C38.0186 0.951321 37.6848 0.717664 37.4178 0.650905C37.1674 0.567455 36.7919 0.52573 36.2912 0.52573L36.2412 0.225313H42.4748L42.4248 0.52573C41.874 0.52573 41.4817 0.567455 41.2481 0.650905C41.0311 0.717664 40.9227 0.884562 40.9227 1.1516C40.9227 1.45202 41.0228 1.79416 41.2231 2.17802C41.4401 2.56189 41.5819 2.82058 41.6486 2.9541C41.7154 3.08762 41.8239 3.2879 41.9741 3.55494C42.1243 3.80528 42.2495 4.01391 42.3497 4.18081C42.8003 4.98192 43.109 5.51599 43.2759 5.78303L45.5291 9.66342L47.4567 5.78303C48.6083 3.41307 49.1841 1.94437 49.1841 1.37691C49.1841 1.00974 49.059 0.776078 48.8086 0.675939C48.575 0.5758 48.141 0.52573 47.5068 0.52573L47.4567 0.225313H53.0645L53.0145 0.52573C52.23 0.52573 51.5708 0.659249 51.0367 0.926286C50.6361 1.12656 50.0687 1.91933 49.3343 3.30459C49.0506 3.83867 48.6334 4.66481 48.0826 5.78303L45.9046 10.2392V12.0918Z" fill="black"/>
<path d="M64.7831 17.4492C65.4173 17.4492 65.8596 17.3992 66.11 17.299C66.377 17.1989 66.5105 16.9402 66.5105 16.5229C66.5105 16.1057 66.0682 14.6871 65.1837 12.267H57.5481C56.8304 14.3866 56.4716 15.7218 56.4716 16.2726C56.4716 16.8067 56.6051 17.1405 56.8722 17.274C57.1559 17.3908 57.6566 17.4492 58.3742 17.4492L58.4243 17.7497H52.7915L52.8415 17.4492C53.3255 17.4492 53.7011 17.4075 53.9681 17.3241C54.2518 17.2406 54.5522 17.0236 54.8693 16.6732C55.2031 16.306 55.5203 15.7802 55.8207 15.096C56.1211 14.4117 56.4799 13.452 56.8972 12.217L59.1253 5.78303C59.9097 3.51321 60.3019 2.1363 60.3019 1.6523C60.3019 1.16829 60.1851 0.859527 59.9514 0.726009C59.7178 0.575801 59.2671 0.500696 58.5995 0.500696L58.5495 0.225313H62.6802L67.1114 12.217C67.8624 14.2031 68.3631 15.4631 68.6134 15.9972C68.8805 16.5313 69.1308 16.8734 69.3645 17.0236C69.7817 17.3074 70.3075 17.4492 70.9417 17.4492L70.9918 17.7497H64.7331L64.7831 17.4492ZM61.2783 1.57719L57.7484 11.6662H64.9834L61.2783 1.57719Z" fill="black"/>
<path d="M101.992 5.88317V12.0918C101.992 13.8776 102.042 15.096 102.142 15.7469C102.259 16.3978 102.417 16.8067 102.618 16.9736C103.001 17.2907 103.611 17.4492 104.445 17.4492L104.495 17.7497H97.7858L97.8359 17.4492C98.6537 17.4492 99.2545 17.299 99.6384 16.9986C99.9555 16.7483 100.139 15.9305 100.189 14.5452C100.223 13.9944 100.239 13.1766 100.239 12.0918V1.50209L93.2295 17.4993L85.9944 3.95549V12.0417C85.9944 13.7107 86.0696 14.9207 86.2198 15.6718C86.3867 16.4061 86.6453 16.8901 86.9958 17.1238C87.3463 17.3407 87.9305 17.4492 88.7483 17.4492L88.7983 17.7497H82.6398L82.6899 17.4492C83.3074 17.4492 83.7663 17.4075 84.0668 17.3241C84.3839 17.2239 84.6509 16.9736 84.8679 16.573C85.0848 16.1725 85.2184 15.6384 85.2684 14.9708C85.3352 14.3032 85.3686 13.3268 85.3686 12.0417V5.90821C85.3686 4.62309 85.3352 3.64673 85.2684 2.97914C85.2184 2.31154 85.0848 1.77747 84.8679 1.37691C84.6509 0.976356 84.3839 0.734354 84.0668 0.650905C83.7663 0.550766 83.3074 0.500696 82.6899 0.500696L82.6398 0.225313H85.9944L93.7302 14.8206L100.114 0.225313H104.495L104.445 0.500696C103.611 0.500696 103.001 0.65925 102.618 0.976357C102.2 1.32684 101.992 2.96245 101.992 5.88317Z" fill="black"/>
<path d="M119.332 17.4492C119.966 17.4492 120.408 17.3992 120.658 17.299C120.925 17.1989 121.059 16.9402 121.059 16.5229C121.059 16.1057 120.617 14.6871 119.732 12.267H112.097C111.379 14.3866 111.02 15.7218 111.02 16.2726C111.02 16.8067 111.154 17.1405 111.421 17.274C111.704 17.3908 112.205 17.4492 112.923 17.4492L112.973 17.7497H107.34L107.39 17.4492C107.874 17.4492 108.249 17.4075 108.517 17.3241C108.8 17.2406 109.101 17.0236 109.418 16.6732C109.752 16.306 110.069 15.7802 110.369 15.096C110.67 14.4117 111.028 13.452 111.446 12.217L113.674 5.78303C114.458 3.51321 114.85 2.1363 114.85 1.6523C114.85 1.16829 114.734 0.859527 114.5 0.726009C114.266 0.575801 113.816 0.500696 113.148 0.500696L113.098 0.225313H117.229L121.66 12.217C122.411 14.2031 122.912 15.4631 123.162 15.9972C123.429 16.5313 123.679 16.8734 123.913 17.0236C124.33 17.3074 124.856 17.4492 125.49 17.4492L125.54 17.7497H119.282L119.332 17.4492ZM115.827 1.57719L112.297 11.6662H119.532L115.827 1.57719Z" fill="black"/>
<path d="M129.202 12.4423C129.202 14.0612 129.594 15.2962 130.379 16.1474C131.18 16.9986 132.156 17.4242 133.308 17.4242C134.459 17.4242 135.402 17.1488 136.137 16.5981C136.871 16.0306 137.238 15.146 137.238 13.9444C137.238 12.8595 136.662 11.8915 135.511 11.0403C135.01 10.6732 134.451 10.3143 133.834 9.96384C133.216 9.59666 132.598 9.22114 131.981 8.83727C131.363 8.45341 130.804 8.05285 130.304 7.63561C129.152 6.66759 128.576 5.54103 128.576 4.25591C128.576 2.9541 129.044 1.91933 129.978 1.1516C130.929 0.383866 132.181 0 133.733 0C135.302 0 136.754 0.342142 138.089 1.02643C138.089 1.86092 137.964 3.29625 137.714 5.33241L137.338 5.23227C137.338 3.66342 136.954 2.49513 136.187 1.7274C135.419 0.942977 134.535 0.550765 133.533 0.550765C132.548 0.550765 131.756 0.842837 131.155 1.42698C130.554 1.99444 130.254 2.67038 130.254 3.4548C130.254 4.23922 130.462 4.91516 130.879 5.48261C131.313 6.03338 131.847 6.49235 132.482 6.85953C133.133 7.2267 133.833 7.6356 134.585 8.08623C135.336 8.52017 136.028 8.9541 136.662 9.38804C137.313 9.80529 137.847 10.3561 138.265 11.0403C138.699 11.7246 138.916 12.4924 138.916 13.3435C138.916 14.879 138.365 16.0389 137.263 16.8234C136.178 17.6078 134.868 18 133.333 18C132.482 18 131.605 17.8665 130.704 17.5994C129.82 17.3324 129.094 16.9402 128.526 16.4228C128.526 15.3547 128.626 14.0028 128.827 12.3672L129.202 12.4423Z" fill="black"/>
<path d="M152.394 0C155.081 0 157.226 0.826147 158.828 2.47844C160.447 4.11405 161.256 6.242 161.256 8.86231C161.256 11.4659 160.472 13.6439 158.903 15.3964C157.351 17.1321 155.24 18 152.569 18C149.899 18 147.746 17.1238 146.11 15.3713C144.491 13.6189 143.682 11.4409 143.682 8.83727C143.682 6.21697 144.458 4.08901 146.01 2.45341C147.579 0.817803 149.707 0 152.394 0ZM152.544 17.4242C154.681 17.4242 156.299 16.6565 157.401 15.121C158.519 13.5688 159.078 11.5327 159.078 9.01252C159.078 6.49235 158.494 4.45619 157.326 2.90403C156.158 1.35188 154.505 0.5758 152.369 0.5758C150.249 0.5758 148.63 1.34353 147.512 2.879C146.411 4.41446 145.86 6.45063 145.86 8.98748C145.86 11.5076 146.444 13.5438 147.612 15.096C148.781 16.6481 150.425 17.4242 152.544 17.4242Z" fill="black"/>
<path d="M181.596 5.85814V17.8748H180.82L169.029 2.97914V12.0417C169.029 13.7107 169.104 14.9124 169.254 15.6467C169.404 16.3811 169.655 16.8651 170.005 17.0987C170.356 17.3324 170.931 17.4492 171.732 17.4492L171.783 17.7497H165.624L165.674 17.4492C166.475 17.4492 167.051 17.3324 167.401 17.0987C167.752 16.8651 168.002 16.3811 168.152 15.6467C168.319 14.9124 168.403 13.7107 168.403 12.0417V5.85814C168.403 4.18915 168.319 2.99583 168.152 2.27816C168.002 1.54381 167.752 1.06815 167.401 0.851183C167.068 0.617525 166.492 0.500696 165.674 0.500696L165.624 0.225313H169.029L180.97 15.121V5.85814C180.97 4.20584 180.887 3.01252 180.72 2.27816C180.57 1.54381 180.319 1.06815 179.969 0.851183C179.618 0.617525 179.034 0.500696 178.217 0.500696L178.166 0.225313H184.375L184.325 0.500696C183.507 0.500696 182.923 0.617525 182.573 0.851183C182.222 1.06815 181.972 1.54381 181.821 2.27816C181.671 3.01252 181.596 4.20584 181.596 5.85814Z" fill="black"/>
</svg>
