<svg xmlns="http://www.w3.org/2000/svg" width="123" height="36" viewBox="0 0 123 36" fill="none"><path fill-rule="evenodd" clip-rule="evenodd" d="M0 0H25.1248V36H0V0ZM3.62134 32.3759H21.491V3.62552H3.62134V32.3759Z" fill="black"></path><path fill-rule="evenodd" clip-rule="evenodd" d="M41.8147 16.1502H40.2607C38.2192 13.2665 36.1945 10.401 34.1726 7.16242H34.1579V16.1502H32.44V3.61848H33.9955C36.0369 6.48194 38.0588 9.32727 40.0619 12.5491H40.0975V3.61848H41.8154V16.1502H41.8147ZM45.8983 11.1902C46.3968 9.54272 46.8988 8.02139 47.3471 6.08732H47.3834C47.884 8.02139 48.3323 9.54341 48.7973 11.1902H45.8983ZM46.7196 3.61848L42.3899 16.1502H44.2515L45.3406 12.7297H49.1202L50.1039 16.1502H52.5044L48.5108 3.61848H46.7196ZM54.5257 16.1502V5.29947H51.2306V3.61848H59.966V5.29947H56.6738V16.1502H54.5257ZM60.6626 3.61848H62.796V16.1502H60.6626V3.61848ZM69.4196 14.5724C67.1794 14.5724 66.3923 12.1022 66.3923 9.70308C66.3923 7.3946 67.2868 5.1921 69.4196 5.1921C71.5496 5.1921 72.4413 7.3946 72.4413 9.70308C72.4413 12.1022 71.6555 14.5724 69.4196 14.5724ZM69.4196 16.3622C72.6944 16.3622 74.7344 13.4457 74.7344 9.70238C74.7344 6.19469 72.4824 3.40234 69.4196 3.40234C66.3595 3.40234 64.0977 6.19469 64.0977 9.70238C64.0984 13.4464 66.142 16.3622 69.4196 16.3622ZM85.4214 16.1502H83.8652C81.8223 13.2665 79.799 10.401 77.7785 7.16242H77.7611V16.1502H76.0452V3.61848H77.6014C79.64 6.48194 81.6634 9.32727 83.6651 12.5491H83.702V3.61848H85.4221V16.1502H85.4214ZM89.5028 11.1902C90.0055 9.54272 90.5041 8.02139 90.9545 6.08732H90.99C91.4913 8.02139 91.9375 9.54341 92.4019 11.1902H89.5028ZM90.3284 3.61848L85.9966 16.1502H87.8595L88.9486 12.7297H92.7275L93.7119 16.1502H96.1097L92.1167 3.61848H90.3284ZM96.7337 3.61848H98.8678V14.4664H103.108V16.1502H96.7337V3.61848ZM40.4942 26.6322V31.8041C39.3473 32.2538 38.1474 32.5738 36.9335 32.5738C33.2446 32.5738 30.918 29.7097 30.918 26.0214C30.918 22.6009 33.2446 19.6126 37.004 19.6126C38.1655 19.6126 39.3299 20.0442 40.0466 20.5803L39.348 22.0661C38.7763 21.7112 37.879 21.4065 37.0569 21.4065C34.7673 21.4065 33.2083 23.2151 33.2083 26.0618C33.2083 29.0313 34.9995 30.7841 36.8436 30.7841C37.4139 30.7841 37.8999 30.7157 38.3496 30.4808V26.6322H40.4942ZM48.1775 21.5139H44.5931V24.9491H48.1015V26.6322H44.5931V30.6753H48.8176V32.3605H42.4436V19.828H48.1775V21.5139ZM54.8004 30.7834C52.5602 30.7834 51.7717 28.3152 51.7717 25.9147C51.7717 23.6076 52.6669 21.4058 54.8004 21.4058C56.929 21.4058 57.8221 23.6076 57.8221 25.9147C57.8221 28.3152 57.0329 30.7834 54.8004 30.7834ZM54.8004 32.5738C58.0745 32.5738 60.1138 29.656 60.1138 25.914C60.1138 22.4063 57.8597 19.6119 54.8004 19.6119C51.7354 19.6119 49.4827 22.4063 49.4827 25.914C49.482 29.6567 51.5193 32.5738 54.8004 32.5738ZM70.4236 26.6322V31.8041C69.2766 32.2538 68.0802 32.5738 66.8615 32.5738C63.1753 32.5738 60.8466 29.7097 60.8466 26.0214C60.8466 22.6009 63.1753 19.6126 66.9347 19.6126C68.099 19.6126 69.2606 20.0442 69.9753 20.5803L69.2766 22.0661C68.7035 21.7112 67.8139 21.4065 66.9891 21.4065C64.6945 21.4065 63.137 23.2151 63.137 26.0618C63.137 29.0313 64.9288 30.7841 66.7729 30.7841C67.3475 30.7841 67.8285 30.7157 68.2775 30.4808V26.6322H70.4236ZM74.5455 21.5139H75.4916C76.7592 21.5139 77.4773 22.2446 77.4773 23.5351C77.4773 25.2161 76.4587 25.967 75.4372 26.0207C75.2218 26.0423 74.7198 26.0604 74.5455 26.0758V21.5139ZM79.9859 32.3605L77.4571 27.1711C78.8355 26.439 79.6275 24.9491 79.6275 23.4452C79.6275 21.0084 78.1389 19.828 75.7398 19.828H72.3925V32.3605H74.5455V27.6347H75.5111L77.5303 32.3605H79.9859ZM83.5291 27.4012C84.029 25.7516 84.5303 24.2316 84.9793 22.2983H85.0149C85.5162 24.2316 85.9624 25.7516 86.4281 27.4012H83.5291ZM84.3511 19.828L80.0179 32.3605H81.8795L82.9727 28.9399H86.7516L87.7305 32.3605H90.1338L86.1395 19.828H84.3511ZM94.1602 19.828H90.8129V32.3605H92.9617V27.6347H93.926C96.4875 27.6347 98.0465 25.5577 98.0465 23.4452C98.0465 21.0077 96.5594 19.828 94.1602 19.828ZM93.8591 26.0214C93.6359 26.0416 93.1116 26.0583 92.9617 26.073V21.5139H93.926C95.1789 21.5139 95.8977 22.2446 95.8977 23.5351C95.8977 25.2161 94.8805 25.9677 93.8591 26.0214ZM107.998 32.3605H105.85V26.3296H101.39V32.3605H99.2653V19.828H101.39V24.6437H105.85V19.8636H107.998V32.3605ZM110.055 19.828H112.19V32.3605H110.055V19.828ZM121.852 22.103C121.332 21.7802 120.477 21.4058 119.649 21.4058C117.462 21.4058 115.874 23.2144 115.874 26.0611C115.874 29.0306 117.627 30.7834 119.705 30.7834C120.465 30.7798 121.209 30.5623 121.852 30.1559L122.445 31.7149C121.796 32.1618 120.654 32.5738 119.618 32.5738C115.929 32.5738 113.6 29.7097 113.6 26.0214C113.6 22.6009 115.908 19.6126 119.649 19.6126C120.762 19.6126 121.796 20.0811 122.535 20.5803L121.852 22.103Z" fill="black"></path></svg>