<svg xmlns="http://www.w3.org/2000/svg" width="119" height="31" viewBox="0 0 119 31" fill="none"><path d="M34.706 0.133057C27.7706 0.182642 22.0977 7.89081 22.0977 14.6141C22.0977 21.6892 26.2562 30.3198 34.706 30.2918C43.1559 30.2638 47.5416 20.9722 47.5416 14.6141C47.5416 7.59102 41.6414 0.083473 34.706 0.133057ZM34.706 0.396767C40.5107 0.396767 42.0767 6.80757 42.0767 14.6141C42.0767 24.9146 40.1877 29.9964 34.706 29.9868C29.2244 29.9771 27.4411 25.8179 27.4411 14.6141C27.4411 7.59583 28.9013 0.396767 34.706 0.396767Z" fill="black"></path><path d="M49.8321 14.8034C49.8011 7.15339 55.9238 0.376912 61.1067 0.0406986C62.9789 -0.091936 65.3854 0.76539 66.7904 1.37612C67.8106 1.8196 69.8931 1.17768 70.2629 0H70.4646V10.4208H70.2629C70.2629 9.97658 68.3331 0.302695 61.1067 0.302695C55.7692 0.302695 55.2535 9.68815 55.2535 14.8034C55.2535 19.9187 55.409 30.0453 61.6378 30.0453C64.6551 30.0453 66.8886 28.7252 67.4676 26.0545V17.934H64.9349V17.5881H74.7521V17.934H72.3307V29.8061H72.1336C72.1336 29.8061 71.7399 28.0931 69.7424 28.0989C67.1894 28.1062 64.7816 30.3242 61.8466 30.2972C54.0847 30.2258 49.8632 22.4535 49.8321 14.8034Z" fill="black"></path><path d="M3.05678 1.16001H0V0.816406H10.7081V1.16001H8.02166L15.6728 21.9382C18.0654 14.5723 19.9189 9.12738 22.4131 1.16001H19.756V0.816406H25.4099V1.16001H22.8351L13.5359 30.1496L3.05678 1.16001Z" fill="black"></path><path d="M76.251 23.0508L76.2026 1.1253H73.293V0.796875H84.0125V1.1253H81.1046L81.1692 25.1655C81.8129 27.9183 82.9574 30.007 86.8676 30.0381C90.7778 30.0692 93.436 27.725 94.4239 24.5214V1.1253H91.0955L91.0954 0.80655H118.338L118.395 11.3317H118.133C117.628 4.536 115.006 1.96772 110.42 1.21846C108.842 0.960636 107.186 1.15176 105.094 1.13549V14.5683C106.916 14.7091 108.857 14.5939 110.165 13.4703C111.355 12.4486 111.691 10.0879 111.779 9.1289H112.009V20.8247H111.76C111.688 20.8247 111.592 17.8897 110.165 16.4972C108.729 15.0956 106.901 14.751 105.094 15.085V29.4342C107.646 29.4342 109.681 29.6504 111.448 29.1659C116.819 27.6933 118.71 23.1618 118.696 18.6168H118.994V29.7739H97.6258V29.4342H100.042V1.1253H94.8217V24.5214C94.2301 26.76 92.0675 30.4634 86.5255 30.4381C81.3727 30.4146 76.2621 28.0915 76.251 23.0508Z" fill="black"></path></svg>